<?xml version="1.0" encoding="UTF-8"?><svg id="a" xmlns="http://www.w3.org/2000/svg" viewBox="0 0 103 26">
<title>Andela logo - Brandlogos.net</title><path d="M51.34,18.95h.01c1.57,0,2-.44,2-2.04v-5.5c0-2.2-.7-3.19-2.25-3.19-.98,0-2.03.53-3.12,1.57l-.04.04v7.06c0,1.52.48,2.01,2.05,2.04v.37h-6.79v-.37c1.58-.03,2.04-.5,2.04-2.04v-6.64c0-1.51-.32-2.07-1.18-2.07-.28,0-.73.1-1.09.22v-.39l3.94-1.16c.16-.04.3-.06.42-.06.39,0,.59.23.59.69v1.51l.24-.27c1.44-1.64,2.66-2.29,4.32-2.29,2.37,0,3.53,1.46,3.53,4.46v6.02c0,1.54.51,2.04,2.08,2.04v.37h-6.77v-.38Z" style="fill:#10292c;"/><path d="M63.66,19.71c-1.7,0-3.03-.56-4.05-1.73-1.01-1.14-1.53-2.64-1.53-4.44,0-1.96.6-3.58,1.83-4.98,1.23-1.43,2.77-2.12,4.72-2.12,1.23,0,2.19.33,2.84.98l.24.24v-3.55c0-1.94-.33-2.56-1.36-2.56-.25,0-.7.09-1.01.19v-.4S69.73.03,69.73.03c.05-.01.11-.02.16-.02.28,0,.52.22.52.5v15.11c0,1.99.34,2.97,1.11,3.18.18.05.62.09,1.21.1v.38l-4.26-.04h-.75v-1.29l-.23.19c-1.25,1.07-2.51,1.57-3.83,1.57ZM64.66,7.21c-2.11,0-3.53,2.15-3.53,5.35,0,3.38,1.64,5.74,3.98,5.74.83,0,1.7-.4,2.57-1.18l.04-.04v-5.88c.01-2.54-1.11-4-3.07-4Z" style="fill:#10292c;"/><path d="M78.49,19.71c-1.75,0-3.17-.59-4.36-1.81-1.13-1.22-1.71-2.77-1.71-4.61,0-2.01.57-3.66,1.68-4.93,1.13-1.28,2.64-1.92,4.48-1.92,3.19,0,5.27,1.94,5.33,4.95h-9.35v.13c0,3.56,1.84,5.77,4.82,5.77,1.89,0,3.29-.88,4.17-2.64l.32.22c-.28,1.36-.91,2.51-1.84,3.41-.99.95-2.14,1.41-3.53,1.41ZM77.88,7.26c-1.75,0-3.16,1.41-3.29,3.29v.14s6.3,0,6.3,0v-.14c-.13-2.09-1.22-3.29-3.01-3.29Z" style="fill:#10292c;"/><path d="M85.74,4.22c0-1.85-.35-2.47-1.36-2.47-.28,0-.74.07-1.05.17v-.35L87.62.03c.05-.02.12-.03.18-.03h.12c.28,0,.52.22.52.5v16.42c0,1.46.54,2.01,2.05,2.04v.37h-4.73V4.22Z" style="fill:#10292c;"/><path d="M99.91,19.71c-1.08,0-1.6-.6-1.63-1.84v-.28s-.23.18-.23.18c-1.53,1.28-2.88,1.94-4.01,1.94-2.05,0-3.32-1.18-3.32-3.05,0-1.01.54-1.92,1.62-2.75,1.12-.84,3.08-1.73,5.83-2.63l.09-.03v-.09c0-2.51-.39-3.95-2.4-3.95-1.71,0-2.07.89-2.07,1.64,0,1.35-.44,2.01-1.36,2.01-.74,0-1.23-.5-1.23-1.24,0-.85.44-1.57,1.35-2.2.94-.65,2.19-.97,3.74-.97,3.13,0,4.66,1.24,4.66,3.78v5.72c0,1.62.25,2.01.7,2.14.04.01.08.02.14.02.25,0,.56-.19.92-.56l.29.35c-.98,1.21-2.02,1.82-3.09,1.82ZM98.09,12c-3.55,1.39-4.64,2.34-4.64,4.06,0,1.15.86,2.01,2,2.01.76,0,1.67-.38,2.77-1.14l.05-.04v-4.96l-.19.07Z" style="fill:#10292c;"/><path d="M39.8,19.71c-1.08,0-1.6-.6-1.63-1.84v-.28s-.23.18-.23.18c-1.53,1.28-2.88,1.94-4.01,1.94-2.05,0-3.32-1.18-3.32-3.05,0-1.01.54-1.92,1.62-2.75,1.12-.84,3.08-1.73,5.83-2.63l.09-.03v-.09c0-2.51-.39-3.95-2.4-3.95-1.71,0-2.07.89-2.07,1.64,0,1.35-.44,2.01-1.36,2.01-.74,0-1.23-.5-1.23-1.24,0-.85.44-1.57,1.35-2.2.93-.65,2.19-.97,3.74-.97,3.14,0,4.66,1.24,4.66,3.78v5.72c0,1.62.25,2.01.7,2.14.04.01.08.02.14.02.25,0,.56-.18.92-.56l.3.35c-.98,1.21-2.01,1.82-3.09,1.82ZM37.98,12c-3.55,1.39-4.64,2.33-4.64,4.06,0,1.15.86,2.01,2,2.01.76,0,1.67-.38,2.77-1.14l.05-.04v-4.96l-.19.07Z" style="fill:#10292c;"/><path d="M21.81,5.55h-.01s-.14-.09-.14-.09l-.03-.02L14.23,1.33l-.13-.07c-.63-.35-1.36-.54-2.14-.54s-1.51.19-2.13.54l-.11.06-.03.02L2.26,5.47l-.15.08h-.01c-1.25.74-2.1,2.08-2.1,3.6v8.42c0,1.53.84,2.86,2.11,3.6l.09.05,7.58,4.21c.64.36,1.38.56,2.18.56s1.54-.2,2.18-.56l7.57-4.21h.02c1.31-.74,2.19-2.1,2.19-3.66v-8.42c-.01-1.52-.85-2.86-2.12-3.59ZM22.14,13.49h-.04c-5.51.02-10,4.36-10,9.67,0,.07-.06.12-.13.12-.07,0-.13-.06-.13-.12v-.04c-.02-5.31-4.53-9.63-10.05-9.63-.07,0-.13-.06-.13-.12,0-.07.06-.12.13-.12h.04c5.51-.02,10-4.36,10-9.67,0-.07.06-.12.13-.12.07,0,.13.06.13.12,0,5.33,4.5,9.67,10.05,9.67.07,0,.13.06.13.12.01.07-.05.12-.13.12Z" style="fill:#10292c;"/></svg>